HIERARCHY
ROOT reference
{
  OFFSET 0 0 0
  CHANNELS 6 Xposition Yposition Zposition Zrotation Xrotation Yrotation
  JOINT Hips
  {
    OFFSET 356.501 91.4882 232.072
    CHANNELS 3 Zrotation Xrotation Yrotation
    JOINT RightUpLeg
    {
      OFFSET -9.22368 -1.56954 0.0182318
      CHANNELS 3 Zrotation Xrotation Yrotation
      JOINT RightLeg
      {
        OFFSET 0.0168043 -41.8502 0.039304
        CHANNELS 3 Zrotation Xrotation Yrotation
        JOINT RightFoot
        {
          OFFSET -1.24655 -41.4872 1.84727
          CHANNELS 3 Zrotation Xrotation Yrotation
          End Site
          {
            OFFSET 0 -7.69 17.5
          }
        }
      }
    }
    JOINT LeftUpLeg
    {
      OFFSET 9.32755 -1.5915 0.117934
      CHANNELS 3 Zrotation Xrotation Yrotation
      JOINT LeftLeg
      {
        OFFSET 0.115891 -41.8441 0.138627
        CHANNELS 3 Zrotation Xrotation Yrotation
        JOINT LeftFoot
        {
          OFFSET -0.00258131 -42.0603 -2.16995
          CHANNELS 3 Zrotation Xrotation Yrotation
          End Site
          {
            OFFSET 0 -7.69 17.5
          }
        }
      }
    }
    JOINT Spine
    {
      OFFSET 0.0618908 14.3142 0.263402
      CHANNELS 3 Zrotation Xrotation Yrotation
      JOINT Spine1
      {
        OFFSET 0.00953893 9.71784 0.0772804
        CHANNELS 3 Zrotation Xrotation Yrotation
        JOINT Spine2
        {
          OFFSET 0.0659978 10.1164 -0.109334
          CHANNELS 3 Zrotation Xrotation Yrotation
          JOINT Spine3
          {
            OFFSET 0.00354353 9.7233 0.0181573
            CHANNELS 3 Zrotation Xrotation Yrotation
            JOINT Neck
            {
              OFFSET -0.106539 10.3631 0.143191
              CHANNELS 3 Zrotation Xrotation Yrotation
              JOINT Head
              {
                OFFSET 0.0687213 9.49492 0.178169
                CHANNELS 3 Zrotation Xrotation Yrotation
                End Site
                {
                  OFFSET 0 15.95 0
                }
              }
            }
            JOINT RightShoulder
            {
              OFFSET -3.17341 6.93407 0.0508814
              CHANNELS 3 Zrotation Xrotation Yrotation
              JOINT RightArm
              {
                OFFSET -12.8122 0.02699 0.0058978
                CHANNELS 3 Zrotation Xrotation Yrotation
                JOINT RightForeArm
                {
                  OFFSET -26.4689 -0.0132424 0.0432591
                  CHANNELS 3 Zrotation Xrotation Yrotation
                  JOINT RightHand
                  {
                    OFFSET -25.9762 -0.0747187 0.0544432
                    CHANNELS 3 Zrotation Xrotation Yrotation
                    JOINT RightHandThumb1
                    {
                      OFFSET -2.48905 0.190105 3.12053
                      CHANNELS 3 Zrotation Xrotation Yrotation
                      JOINT RightHandThumb2
                      {
                        OFFSET -3.68274 0 0
                        CHANNELS 3 Zrotation Xrotation Yrotation
                        JOINT RightHandThumb3
                        {
                          OFFSET -2.55832 0 0
                          CHANNELS 3 Zrotation Xrotation Yrotation
                          End Site
                          {
                            OFFSET -2.194 0 0
                          }
                        }
                      }
                    }
                    JOINT RightInHandIndex
                    {
                      OFFSET -3.22368 0.508421 1.97842
                      CHANNELS 3 Zrotation Xrotation Yrotation
                      JOINT RightHandIndex1
                      {
                        OFFSET -5.21684 -0.091368 0.999158
                        CHANNELS 3 Zrotation Xrotation Yrotation
                        JOINT RightHandIndex2
                        {
                          OFFSET -3.61937 0 0
                          CHANNELS 3 Zrotation Xrotation Yrotation
                          JOINT RightHandIndex3
                          {
                            OFFSET -2.0521 0 0
                            CHANNELS 3 Zrotation Xrotation Yrotation
                            End Site
                            {
                              OFFSET -1.805 0 0
                            }
                          }
                        }
                      }
                    }
                    JOINT RightInHandMiddle
                    {
                      OFFSET -3.38211 0.517263 0.756737
                      CHANNELS 3 Zrotation Xrotation Yrotation
                      JOINT RightHandMiddle1
                      {
                        OFFSET -5.17411 -0.084 0.313895
                        CHANNELS 3 Zrotation Xrotation Yrotation
                        JOINT RightHandMiddle2
                        {
                          OFFSET -3.94947 0 0
                          CHANNELS 3 Zrotation Xrotation Yrotation
                          JOINT RightHandMiddle3
                          {
                            OFFSET -2.47579 0 0
                            CHANNELS 3 Zrotation Xrotation Yrotation
                            End Site
                            {
                              OFFSET -1.975 0 0
                            }
                          }
                        }
                      }
                    }
                    JOINT RightInHandRing
                    {
                      OFFSET -3.36516 0.537895 -0.128947
                      CHANNELS 3 Zrotation Xrotation Yrotation
                      JOINT RightHandRing1
                      {
                        OFFSET -4.63474 -0.022105 -0.478947
                        CHANNELS 3 Zrotation Xrotation Yrotation
                        JOINT RightHandRing2
                        {
                          OFFSET -3.44238 0 0
                          CHANNELS 3 Zrotation Xrotation Yrotation
                          JOINT RightHandRing3
                          {
                            OFFSET -2.3881 0 0
                            CHANNELS 3 Zrotation Xrotation Yrotation
                            End Site
                            {
                              OFFSET -1.857 0 0
                            }
                          }
                        }
                      }
                    }
                    JOINT RightInHandPinky
                    {
                      OFFSET -3.16105 0.469368 -1.20179
                      CHANNELS 3 Zrotation Xrotation Yrotation
                      JOINT RightHandPinky1
                      {
                        OFFSET -4.14105 -0.022105 -1.09053
                        CHANNELS 3 Zrotation Xrotation Yrotation
                        JOINT RightHandPinky2
                        {
                          OFFSET -2.75653 0 0
                          CHANNELS 3 Zrotation Xrotation Yrotation
                          JOINT RightHandPinky3
                          {
                            OFFSET -1.74189 0 0
                            CHANNELS 3 Zrotation Xrotation Yrotation
                            End Site
                            {
                              OFFSET -1.645 0 0
                            }
                          }
                        }
                      }
                    }
                  }
                }
              }
            }
            JOINT LeftShoulder
            {
              OFFSET 3.13763 6.93537 0.265461
              CHANNELS 3 Zrotation Xrotation Yrotation
              JOINT LeftArm
              {
                OFFSET 12.4516 -0.0856895 0.350644
                CHANNELS 3 Zrotation Xrotation Yrotation
                JOINT LeftForeArm
                {
                  OFFSET 26.6962 -0.139113 0.0812581
                  CHANNELS 3 Zrotation Xrotation Yrotation
                  JOINT LeftHand
                  {
                    OFFSET 25.9561 0.0264111 -0.243705
                    CHANNELS 3 Zrotation Xrotation Yrotation
                    JOINT LeftHandThumb1
                    {
                      OFFSET 2.48905 0.190105 3.12053
                      CHANNELS 3 Zrotation Xrotation Yrotation
                      JOINT LeftHandThumb2
                      {
                        OFFSET 3.68274 0 0
                        CHANNELS 3 Zrotation Xrotation Yrotation
                        JOINT LeftHandThumb3
                        {
                          OFFSET 2.55832 0 0
                          CHANNELS 3 Zrotation Xrotation Yrotation
                          End Site
                          {
                            OFFSET 2.194 0 0
                          }
                        }
                      }
                    }
                    JOINT LeftInHandIndex
                    {
                      OFFSET 3.22368 0.508421 1.97842
                      CHANNELS 3 Zrotation Xrotation Yrotation
                      JOINT LeftHandIndex1
                      {
                        OFFSET 5.21684 -0.091368 0.999158
                        CHANNELS 3 Zrotation Xrotation Yrotation
                        JOINT LeftHandIndex2
                        {
                          OFFSET 3.61937 0 0
                          CHANNELS 3 Zrotation Xrotation Yrotation
                          JOINT LeftHandIndex3
                          {
                            OFFSET 2.0521 0 0
                            CHANNELS 3 Zrotation Xrotation Yrotation
                            End Site
                            {
                              OFFSET 1.805 0 0
                            }
                          }
                        }
                      }
                    }
                    JOINT LeftInHandMiddle
                    {
                      OFFSET 3.38211 0.517263 0.756737
                      CHANNELS 3 Zrotation Xrotation Yrotation
                      JOINT LeftHandMiddle1
                      {
                        OFFSET 5.17411 -0.084 0.313895
                        CHANNELS 3 Zrotation Xrotation Yrotation
                        JOINT LeftHandMiddle2
                        {
                          OFFSET 3.94947 0 0
                          CHANNELS 3 Zrotation Xrotation Yrotation
                          JOINT LeftHandMiddle3
                          {
                            OFFSET 2.47579 0 0
                            CHANNELS 3 Zrotation Xrotation Yrotation
                            End Site
                            {
                              OFFSET 1.975 0 0
                            }
                          }
                        }
                      }
                    }
                    JOINT LeftInHandRing
                    {
                      OFFSET 3.36516 0.537895 -0.128947
                      CHANNELS 3 Zrotation Xrotation Yrotation
                      JOINT LeftHandRing1
                      {
                        OFFSET 4.63474 -0.022105 -0.478947
                        CHANNELS 3 Zrotation Xrotation Yrotation
                        JOINT LeftHandRing2
                        {
                          OFFSET 3.44238 0 0
                          CHANNELS 3 Zrotation Xrotation Yrotation
                          JOINT LeftHandRing3
                          {
                            OFFSET 2.3881 0 0
                            CHANNELS 3 Zrotation Xrotation Yrotation
                            End Site
                            {
                              OFFSET 1.857 0 0
                            }
                          }
                        }
                      }
                    }
                    JOINT LeftInHandPinky
                    {
                      OFFSET 3.16105 0.469368 -1.20179
                      CHANNELS 3 Zrotation Xrotation Yrotation
                      JOINT LeftHandPinky1
                      {
                        OFFSET 4.14105 -0.022105 -1.09053
                        CHANNELS 3 Zrotation Xrotation Yrotation
                        JOINT LeftHandPinky2
                        {
                          OFFSET 2.75653 0 0
                          CHANNELS 3 Zrotation Xrotation Yrotation
                          JOINT LeftHandPinky3
                          {
                            OFFSET 1.74189 0 0
                            CHANNELS 3 Zrotation Xrotation Yrotation
                            End Site
                            {
                              OFFSET 1.645 0 0
                            }
                          }
                        }
                      }
                    }
                  }
                }
              }
            }
          }
        }
      }
    }
  }
}
MOTION
Frames: 2
Frame Time: 0.00833333
2.250000000000000000e+03 0.000000000000000000e+00 0.000000000000000000e+00 0.000000000000000000e+00 0.000000000000000000e+00 0.000000000000000000e+00 2.313520000000000110e+01 -7.839810000000000390e-01 -1.336200000000000330e+02 3.358250000000000313e+01 -3.340100000000000335e+01 3.307209999999999894e+01 -8.099720000000001363e+00 1.245189999999999841e+01 -9.088920000000000332e-01 7.410929999999998685e+00 9.852400000000001157e+00 4.595499999999999829e+01 3.026489999999999725e+01 -6.958790000000000475e+00 1.894109999999999516e+01 -1.968410000000000437e+01 3.585759999999999792e+01 1.753290000000000504e+01 3.300920000000000076e+00 -2.592899999999999849e+01 2.005749999999999744e+01 -6.596070000000000100e+00 -2.071299999999999919e+00 -1.049790000000000134e+01 -1.615829999999999878e+00 -7.835990000000000455e-01 -2.561479999999999535e+00 -2.688250000000000028e+00 -1.387790000000000079e+00 -4.171409999999999840e+00 -7.372060000000000279e-01 -5.149930000000001451e-01 2.624369999999999870e+00 -4.347170000000000201e-01 -8.089820000000001343e+00 3.842549999999999244e+01 -1.164509999999999934e+01 7.226750000000000895e+00 2.655730000000000146e+01 3.706029999999999269e+00 2.100719999999999921e+00 1.843480000000000452e+00 4.043540000000000134e+01 -6.173900000000000432e+01 6.937539999999999374e+00 4.208089999999999975e+01 7.282419999999998339e-01 1.171940000000000026e+02 7.083640000000000825e+00 -2.090080000000000027e+01 4.903380000000001182e+00 2.818400000000000105e+01 1.072940000000000005e+01 1.915919999999999845e+01 -1.299700000000000195e-14 -1.590279999999999485e-15 -1.000000000000000000e+01 -3.083959999999999728e-15 -3.180549999999999587e-15 -1.000000000000000000e+01 1.789059999999999927e-15 -3.180549999999999982e-15 3.180549999999999587e-15 1.998179999999999978e+01 8.718970000000000331e-01 2.396399999999999864e+00 2.400000000000000000e+01 -1.590280000000000274e-15 1.590280000000000274e-15 2.000000000000000000e+01 -7.951389999999999226e-15 9.541660000000000512e-15 1.789059999999999927e-15 -3.180549999999999982e-15 3.180549999999999587e-15 2.000000000000000000e+01 -1.590280000000000116e-14 1.351739999999999991e-14 2.400000000000000000e+01 -1.590280000000000077e-15 4.770829999999999467e-15 2.000000000000000000e+01 -1.590280000000000274e-15 1.590280000000001063e-15 1.789059999999999927e-15 -3.180549999999999982e-15 3.180549999999999587e-15 1.997479999999999833e+01 -1.025649999999999951e+00 -2.819380000000000219e+00 2.400000000000000000e+01 0.000000000000000000e+00 1.113189999999999773e-14 2.000000000000000000e+01 -3.180550000000000376e-15 -6.361109999999998952e-15 1.789059999999999927e-15 -3.180549999999999982e-15 3.180549999999999587e-15 1.978150000000000119e+01 -3.009479999999999933e+00 -8.305149999999999366e+00 2.400000000000000000e+01 9.541660000000000512e-15 2.385419999999999228e-15 2.000000000000000000e+01 6.361110000000001319e-15 6.361109999999997375e-15 2.504389999999999894e+00 -2.375430000000000064e+01 -5.368600000000000705e+01 -1.069269999999999854e+01 2.846930000000000049e+01 -1.126449999999999960e+02 3.150369999999999848e+01 -1.371360000000000134e+01 -2.546849999999999881e+01 -3.989430000000000121e+01 -1.158940000000000126e+01 -1.533409999999999940e+01 -2.818400000000000105e+01 1.072940000000000005e+01 -1.915919999999999845e+01 -1.109509999999999997e-14 8.547740000000001906e-15 1.000000000000000000e+01 -6.193210000000001095e-15 8.150169999999998090e-15 1.000000000000000000e+01 -8.348959999999999886e-15 -3.180549999999999982e-15 3.975690000000000513e-16 -1.998179999999999978e+01 8.718970000000000331e-01 -2.396399999999999864e+00 -2.400000000000000000e+01 3.180550000000001165e-15 1.590280000000000116e-14 -2.000000000000000000e+01 -2.385420000000000017e-15 4.770830000000000256e-15 -8.348959999999999886e-15 -3.180549999999999982e-15 3.975690000000000513e-16 -2.000000000000000000e+01 -3.180549999999999982e-15 1.321919999999999834e-14 -2.400000000000000000e+01 -3.180549999999999982e-15 1.828819999999999610e-14 -2.000000000000000000e+01 6.361109999999998952e-15 9.541659999999998934e-15 -8.348959999999999886e-15 -3.180549999999999982e-15 3.975690000000000513e-16 -1.997479999999999833e+01 -1.025649999999999951e+00 2.819380000000000219e+00 -2.400000000000000000e+01 -1.590280000000000274e-15 1.311980000000000150e-14 -2.000000000000000000e+01 -1.590279999999999485e-15 6.361109999999999741e-15 -8.348959999999999886e-15 -3.180549999999999982e-15 3.975690000000000513e-16 -1.978150000000000119e+01 -3.009479999999999933e+00 8.305149999999999366e+00 -2.400000000000000000e+01 3.180550000000000771e-15 2.276080000000000019e-14 -2.000000000000000000e+01 3.180550000000000771e-15 1.590280000000000432e-14
2.250000000000000000e+03 0.000000000000000000e+00 0.000000000000000000e+00 0.000000000000000000e+00 0.000000000000000000e+00 0.000000000000000000e+00 2.315570000000000306e+01 -7.674929999999999808e-01 -1.338179999999999836e+02 3.364919999999999334e+01 -3.336490000000000578e+01 3.240340000000000487e+01 -8.168950000000000600e+00 1.240520000000000067e+01 -2.706629999999998759e-01 7.475819999999999688e+00 9.846909999999997609e+00 4.614159999999999684e+01 3.031799999999999784e+01 -6.784679999999999822e+00 1.890549999999999642e+01 -1.974239999999999995e+01 3.579030000000000200e+01 1.754350000000000520e+01 3.284820000000000739e+00 -2.595629999999999882e+01 2.022449999999999903e+01 -6.599849999999999994e+00 -2.171959999999999891e+00 -1.063219999999999921e+01 -1.615499999999999714e+00 -8.111110000000000264e-01 -2.592319999999999958e+00 -2.686580000000000634e+00 -1.433280000000000109e+00 -4.219960000000000377e+00 -7.347510000000001540e-01 -5.106079999999999508e-01 2.630240000000000578e+00 -3.902970000000001161e-01 -8.070000000000000284e+00 3.877349999999999852e+01 -1.158919999999999995e+01 7.393769999999998177e+00 2.642089999999999606e+01 3.663539999999999353e+00 2.159380000000000521e+00 1.789400000000000102e+00 3.992629999999999058e+01 -6.186619999999999209e+01 6.338980000000000281e+00 4.137380000000000280e+01 7.547819999999996199e-01 1.177840000000000060e+02 6.940569999999999240e+00 -2.076650000000000063e+01 5.031869999999999621e+00 2.818400000000000105e+01 1.072940000000000005e+01 1.915919999999999845e+01 -7.221909999999999845e-15 -3.180549999999999193e-15 -1.000000000000000000e+01 -2.254189999999999657e-15 -4.770830000000000256e-15 -1.000000000000000000e+01 -9.939229999999980662e-17 3.180549999999999982e-15 3.975690000000000513e-16 1.998179999999999978e+01 8.718970000000000331e-01 2.396399999999999864e+00 2.400000000000000000e+01 1.590280000000000274e-15 9.541660000000000512e-15 2.000000000000000000e+01 -3.975689999999999725e-15 0.000000000000000000e+00 -9.939229999999980662e-17 3.180549999999999982e-15 3.975690000000000513e-16 2.000000000000000000e+01 -9.541660000000002090e-15 1.073440000000000182e-14 2.400000000000000000e+01 1.590280000000000077e-15 4.770829999999999467e-15 2.000000000000000000e+01 -6.361109999999999741e-15 3.180549999999999193e-15 -9.939229999999980662e-17 3.180549999999999982e-15 3.975690000000000513e-16 1.997479999999999833e+01 -1.025649999999999951e+00 -2.819380000000000219e+00 2.400000000000000000e+01 0.000000000000000000e+00 9.541660000000000512e-15 2.000000000000000000e+01 -6.361109999999999741e-15 -7.951389999999999226e-15 -9.939229999999980662e-17 3.180549999999999982e-15 3.975690000000000513e-16 1.978150000000000119e+01 -3.009479999999999933e+00 -8.305149999999999366e+00 2.400000000000000000e+01 3.180549999999999193e-15 -2.782989999999999888e-15 2.000000000000000000e+01 1.590280000000000116e-14 6.361109999999998952e-15 2.596499999999999808e+00 -2.372109999999999985e+01 -5.355080000000000240e+01 -1.059480000000000288e+01 2.829349999999999810e+01 -1.128389999999999844e+02 3.162689999999999912e+01 -1.377279999999999838e+01 -2.595730000000000359e+01 -3.988619999999999521e+01 -1.140429999999999922e+01 -1.552579999999999849e+01 -2.818400000000000105e+01 1.072940000000000005e+01 -1.915919999999999845e+01 3.916090000000000886e-15 1.043620000000000183e-15 1.000000000000000000e+01 -4.440680000000000206e-15 -1.341799999999999834e-15 1.000000000000000000e+01 -8.547740000000000328e-15 -1.590280000000000274e-15 -3.975690000000000513e-16 -1.998179999999999978e+01 8.718970000000000331e-01 -2.396399999999999864e+00 -2.400000000000000000e+01 4.770829999999999467e-15 1.431249999999999897e-14 -2.000000000000000000e+01 -1.590280000000000274e-15 6.361109999999999741e-15 -8.547740000000000328e-15 -1.590280000000000274e-15 -3.975690000000000513e-16 -2.000000000000000000e+01 -4.770830000000001045e-15 1.292099999999999835e-14 -2.400000000000000000e+01 -3.180549999999999587e-15 1.351739999999999833e-14 -2.000000000000000000e+01 6.361109999999999741e-15 1.431249999999999897e-14 -8.547740000000000328e-15 -1.590280000000000274e-15 -3.975690000000000513e-16 -1.997479999999999833e+01 -1.025649999999999951e+00 2.819380000000000219e+00 -2.400000000000000000e+01 -3.180549999999999982e-15 1.232459999999999994e-14 -2.000000000000000000e+01 -4.770830000000000256e-15 3.180549999999999193e-15 -8.547740000000000328e-15 -1.590280000000000274e-15 -3.975690000000000513e-16 -1.978150000000000119e+01 -3.009479999999999933e+00 8.305149999999999366e+00 -2.400000000000000000e+01 9.541660000000000512e-15 2.360570000000000412e-14 -2.000000000000000000e+01 -1.590280000000000077e-15 1.272219999999999677e-14
